<svg version="1.1" id="Layer_1" xmlns="http://www.w3.org/2000/svg" xmlns:xlink="http://www.w3.org/1999/xlink" x="0px" y="0px"
	 width="100%" viewBox="0 0 1080 1080" enable-background="new 0 0 1080 1080" xml:space="preserve">
<path fill="#000000" opacity="1.000000" stroke="none" 
	d="
M607.000000,1081.000000 
	C404.689972,1081.000000 202.879913,1081.000000 1.034936,1081.000000 
	C1.034936,721.064819 1.034936,361.129669 1.034936,1.097249 
	C360.893616,1.097249 720.787231,1.097249 1080.840454,1.097249 
	C1080.840454,360.999939 1080.840454,720.999939 1080.840454,1081.000000 
	C923.129211,1081.000000 765.314636,1081.000000 607.000000,1081.000000 
M677.968323,899.543274 
	C686.388000,896.021362 694.984009,892.864868 703.192261,888.904602 
	C722.790039,879.449036 741.728882,868.879517 759.549194,856.238586 
	C782.474854,839.975952 803.511230,821.770691 822.624207,801.109436 
	C837.617188,784.901978 851.033081,767.627136 863.257629,749.307556 
	C875.268799,731.307556 885.238098,712.189392 893.733032,692.386047 
	C903.800842,668.916260 912.063782,644.706970 916.629089,619.521423 
	C919.815063,601.945618 923.046082,584.165955 923.675110,566.386047 
	C924.740540,536.267090 924.912903,506.077148 919.186340,476.137360 
	C915.913330,459.025299 912.403870,442.061157 907.140320,425.444946 
	C898.775269,399.037872 887.737488,373.864014 874.070496,349.746246 
	C862.951721,330.125397 850.316589,311.511658 835.639648,294.559540 
	C822.863281,279.802795 808.221191,266.656952 794.346497,252.856583 
	C780.202087,238.787918 763.831665,227.601456 747.229004,216.729904 
	C728.891174,204.722198 709.666931,194.146820 689.270813,186.328461 
	C669.107788,178.599426 648.423706,171.925262 627.517578,166.536606 
	C611.114014,162.308517 594.060242,158.733765 577.229980,158.424698 
	C543.578369,157.806778 509.672180,155.226288 476.284332,162.090805 
	C459.597382,165.521622 442.915985,169.246445 426.565643,173.988358 
	C398.552155,182.112793 372.250793,194.352295 346.975281,208.936630 
	C320.329803,224.311462 296.239685,242.956665 274.239563,264.347107 
	C266.642792,271.733337 259.385284,279.487061 252.259674,287.333466 
	C246.326080,293.867249 240.282074,300.410034 235.227936,307.609436 
	C225.980759,320.781616 217.222900,334.312012 208.635315,347.929077 
	C196.158997,367.712372 187.077148,389.158875 179.028564,411.028015 
	C172.302170,429.304626 166.889511,447.974518 163.926086,467.287231 
	C162.008514,479.784088 158.292267,492.268555 158.327087,504.750366 
	C158.419174,537.755066 155.000320,570.973022 162.025116,603.717957 
	C165.434265,619.609192 168.445908,635.632202 172.850845,651.253418 
	C181.513702,681.974365 194.603928,710.898438 211.059967,738.239197 
	C224.582062,760.705322 240.057571,781.759155 258.257599,800.699219 
	C266.479065,809.254944 274.751892,817.794556 283.481903,825.818726 
	C291.897156,833.553589 300.487274,841.243713 309.799774,847.822144 
	C323.057465,857.187561 337.032379,865.539551 350.724121,874.288147 
	C369.242035,886.120605 389.513733,894.290039 409.959045,901.925903 
	C431.707275,910.048340 454.012421,916.331726 477.179718,919.027710 
	C491.751556,920.723389 506.300446,923.313416 520.915405,923.789856 
	C547.794189,924.666077 574.756470,924.802856 601.387451,919.945557 
	C613.754639,917.689941 626.151489,915.363708 638.287964,912.139709 
	C651.437683,908.646484 664.299622,904.070190 677.968323,899.543274 
z"/>
<path fill="#FFFFFF" opacity="1.000000" stroke="none" 
	d="
M677.627686,899.754761 
	C664.299622,904.070190 651.437683,908.646484 638.287964,912.139709 
	C626.151489,915.363708 613.754639,917.689941 601.387451,919.945557 
	C574.756470,924.802856 547.794189,924.666077 520.915405,923.789856 
	C506.300446,923.313416 491.751556,920.723389 477.179718,919.027710 
	C454.012421,916.331726 431.707275,910.048340 409.959045,901.925903 
	C389.513733,894.290039 369.242035,886.120605 350.724121,874.288147 
	C337.032379,865.539551 323.057465,857.187561 309.799774,847.822144 
	C300.487274,841.243713 291.897156,833.553589 283.481903,825.818726 
	C274.751892,817.794556 266.479065,809.254944 258.257599,800.699219 
	C240.057571,781.759155 224.582062,760.705322 211.059967,738.239197 
	C194.603928,710.898438 181.513702,681.974365 172.850845,651.253418 
	C168.445908,635.632202 165.434265,619.609192 162.025116,603.717957 
	C155.000320,570.973022 158.419174,537.755066 158.327087,504.750366 
	C158.292267,492.268555 162.008514,479.784088 163.926086,467.287231 
	C166.889511,447.974518 172.302170,429.304626 179.028564,411.028015 
	C187.077148,389.158875 196.158997,367.712372 208.635315,347.929077 
	C217.222900,334.312012 225.980759,320.781616 235.227936,307.609436 
	C240.282074,300.410034 246.326080,293.867249 252.259674,287.333466 
	C259.385284,279.487061 266.642792,271.733337 274.239563,264.347107 
	C296.239685,242.956665 320.329803,224.311462 346.975281,208.936630 
	C372.250793,194.352295 398.552155,182.112793 426.565643,173.988358 
	C442.915985,169.246445 459.597382,165.521622 476.284332,162.090805 
	C509.672180,155.226288 543.578369,157.806778 577.229980,158.424698 
	C594.060242,158.733765 611.114014,162.308517 627.517578,166.536606 
	C648.423706,171.925262 669.107788,178.599426 689.270813,186.328461 
	C709.666931,194.146820 728.891174,204.722198 747.229004,216.729904 
	C763.831665,227.601456 780.202087,238.787918 794.346497,252.856583 
	C808.221191,266.656952 822.863281,279.802795 835.639648,294.559540 
	C850.316589,311.511658 862.951721,330.125397 874.070496,349.746246 
	C887.737488,373.864014 898.775269,399.037872 907.140320,425.444946 
	C912.403870,442.061157 915.913330,459.025299 919.186340,476.137360 
	C924.912903,506.077148 924.740540,536.267090 923.675110,566.386047 
	C923.046082,584.165955 919.815063,601.945618 916.629089,619.521423 
	C912.063782,644.706970 903.800842,668.916260 893.733032,692.386047 
	C885.238098,712.189392 875.268799,731.307556 863.257629,749.307556 
	C851.033081,767.627136 837.617188,784.901978 822.624207,801.109436 
	C803.511230,821.770691 782.474854,839.975952 759.549194,856.238586 
	C741.728882,868.879517 722.790039,879.449036 703.192261,888.904602 
	C694.984009,892.864868 686.388000,896.021362 677.627686,899.754761 
M801.969666,305.642242 
	C787.118225,289.659607 771.359314,274.573486 753.846680,261.601135 
	C741.192017,252.227356 727.706848,243.905640 714.191895,235.780350 
	C697.669556,225.847015 680.317261,217.460190 662.109314,211.000565 
	C638.382324,202.583008 614.311890,195.499130 589.123474,192.977234 
	C575.790527,191.642349 562.474792,189.543396 549.116577,189.218903 
	C535.638611,188.891510 522.052429,189.722992 508.632935,191.160019 
	C493.337860,192.797836 478.027222,194.971191 462.987640,198.158691 
	C438.767792,203.291885 415.166016,210.799500 393.074677,222.119736 
	C376.492157,230.617111 360.081787,239.596054 344.341522,249.542343 
	C333.136871,256.622589 322.563324,265.004578 312.800598,273.992310 
	C298.291901,287.349182 284.053497,301.139191 270.991852,315.888794 
	C258.163849,330.374573 247.519241,346.635620 237.729797,363.451904 
	C226.779999,382.261414 217.192398,401.635834 209.994873,422.160797 
	C202.037781,444.851898 195.510529,467.915131 192.981003,491.936279 
	C191.612473,504.932251 189.820114,517.911255 189.164505,530.945557 
	C188.667740,540.821716 189.519135,550.780884 190.044205,560.688599 
	C190.504105,569.366638 190.644745,578.149963 192.169998,586.664001 
	C194.952805,602.197693 198.465637,617.610352 202.014709,632.994934 
	C209.158920,663.963928 222.772858,692.334106 238.451523,719.663330 
	C250.155777,740.064758 264.406311,758.869812 280.106934,776.372314 
	C294.435547,792.345520 310.135986,807.084106 327.532928,819.698059 
	C340.154266,828.849426 353.584076,836.896301 366.751038,845.282227 
	C384.591095,856.644592 403.907013,864.993958 423.789368,871.917053 
	C443.403229,878.746582 463.344879,884.552307 484.086578,887.040588 
	C497.504578,888.650208 510.886505,891.405640 524.331421,891.734741 
	C541.639343,892.158447 559.040161,891.230286 576.313965,889.819824 
	C589.698486,888.726807 603.096069,886.679138 616.227478,883.848267 
	C639.155273,878.905396 661.510010,871.816956 682.836792,861.949341 
	C703.601196,852.341980 724.010376,841.894165 742.280762,828.013367 
	C756.300537,817.361938 769.672363,805.832947 783.016846,794.328369 
	C789.338257,788.878540 795.252563,782.863098 800.759644,776.584839 
	C808.273071,768.019226 815.626343,759.251160 822.305115,750.031555 
	C829.857971,739.605408 837.435547,729.035828 843.480774,717.716064 
	C852.993347,699.903625 862.101379,681.768433 869.770752,663.108215 
	C877.585205,644.094971 883.308472,624.238831 886.055908,603.709412 
	C888.083984,588.554565 891.019165,573.436584 891.767151,558.214600 
	C892.899536,535.169434 891.725586,512.142151 888.162720,489.207916 
	C885.232239,470.343719 880.862366,451.895966 875.246826,433.724548 
	C867.875671,409.872070 857.522156,387.323914 845.027893,365.696991 
	C832.731689,344.413055 818.501282,324.590210 801.969666,305.642242 
z"/>
<path fill="#000000" opacity="1.000000" stroke="none" 
	d="
M802.000366,306.001343 
	C818.501282,324.590210 832.731689,344.413055 845.027893,365.696991 
	C857.522156,387.323914 867.875671,409.872070 875.246826,433.724548 
	C880.862366,451.895966 885.232239,470.343719 888.162720,489.207916 
	C891.725586,512.142151 892.899536,535.169434 891.767151,558.214600 
	C891.019165,573.436584 888.083984,588.554565 886.055908,603.709412 
	C883.308472,624.238831 877.585205,644.094971 869.770752,663.108215 
	C862.101379,681.768433 852.993347,699.903625 843.480774,717.716064 
	C837.435547,729.035828 829.857971,739.605408 822.305115,750.031555 
	C815.626343,759.251160 808.273071,768.019226 800.759644,776.584839 
	C795.252563,782.863098 789.338257,788.878540 783.016846,794.328369 
	C769.672363,805.832947 756.300537,817.361938 742.280762,828.013367 
	C724.010376,841.894165 703.601196,852.341980 682.836792,861.949341 
	C661.510010,871.816956 639.155273,878.905396 616.227478,883.848267 
	C603.096069,886.679138 589.698486,888.726807 576.313965,889.819824 
	C559.040161,891.230286 541.639343,892.158447 524.331421,891.734741 
	C510.886505,891.405640 497.504578,888.650208 484.086578,887.040588 
	C463.344879,884.552307 443.403229,878.746582 423.789368,871.917053 
	C403.907013,864.993958 384.591095,856.644592 366.751038,845.282227 
	C353.584076,836.896301 340.154266,828.849426 327.532928,819.698059 
	C310.135986,807.084106 294.435547,792.345520 280.106934,776.372314 
	C264.406311,758.869812 250.155777,740.064758 238.451523,719.663330 
	C222.772858,692.334106 209.158920,663.963928 202.014709,632.994934 
	C198.465637,617.610352 194.952805,602.197693 192.169998,586.664001 
	C190.644745,578.149963 190.504105,569.366638 190.044205,560.688599 
	C189.519135,550.780884 188.667740,540.821716 189.164505,530.945557 
	C189.820114,517.911255 191.612473,504.932251 192.981003,491.936279 
	C195.510529,467.915131 202.037781,444.851898 209.994873,422.160797 
	C217.192398,401.635834 226.779999,382.261414 237.729797,363.451904 
	C247.519241,346.635620 258.163849,330.374573 270.991852,315.888794 
	C284.053497,301.139191 298.291901,287.349182 312.800598,273.992310 
	C322.563324,265.004578 333.136871,256.622589 344.341522,249.542343 
	C360.081787,239.596054 376.492157,230.617111 393.074677,222.119736 
	C415.166016,210.799500 438.767792,203.291885 462.987640,198.158691 
	C478.027222,194.971191 493.337860,192.797836 508.632935,191.160019 
	C522.052429,189.722992 535.638611,188.891510 549.116577,189.218903 
	C562.474792,189.543396 575.790527,191.642349 589.123474,192.977234 
	C614.311890,195.499130 638.382324,202.583008 662.109314,211.000565 
	C680.317261,217.460190 697.669556,225.847015 714.191895,235.780350 
	C727.706848,243.905640 741.192017,252.227356 753.846680,261.601135 
	C771.359314,274.573486 787.118225,289.659607 802.000366,306.001343 
M528.000000,592.475403 
	C528.316101,567.823425 515.955261,551.016296 494.827240,539.487244 
	C504.799744,535.469849 511.635773,527.994568 517.316528,519.887634 
	C523.807739,510.624115 528.483398,500.319946 528.056580,488.380096 
	C527.664490,477.410309 525.200745,466.893616 521.195312,456.826111 
	C517.834290,448.378326 512.662903,440.838196 504.662659,436.042114 
	C495.025940,430.265045 485.377014,424.565063 473.591431,423.740265 
	C463.054474,423.002838 452.614929,420.669373 442.079224,420.175964 
	C431.870697,419.697845 421.594879,420.907837 411.347778,420.927155 
	C402.434570,420.943939 393.521393,420.104095 384.606079,420.058868 
	C373.815765,420.004120 368.503082,424.024750 368.039673,432.341400 
	C367.534241,441.412354 367.013092,450.501709 367.053192,459.580597 
	C367.275604,509.970825 367.670807,560.360352 367.994598,610.750122 
	C368.034210,616.912903 368.000153,623.076172 367.999817,629.239258 
	C367.999756,630.238647 367.995819,631.238098 367.996674,632.237488 
	C368.001221,637.395874 367.502533,642.616821 368.133301,647.697510 
	C369.019470,654.835205 373.281708,657.875366 380.520264,658.029785 
	C390.602753,658.244812 400.688629,659.092712 410.759094,658.908203 
	C429.752716,658.560120 448.762604,658.077026 467.714752,656.857544 
	C480.056183,656.063416 491.499420,652.309021 501.571930,644.240417 
	C518.006592,631.075500 527.709961,614.815979 528.000000,592.475403 
M564.000000,543.515015 
	C563.666687,577.758118 563.463257,612.003296 562.915588,646.242981 
	C562.764526,655.691956 566.662354,659.019836 575.904297,658.943909 
	C584.656494,658.872009 593.402649,658.179565 602.155579,658.061035 
	C606.955261,657.996094 610.364014,656.034912 610.872314,651.371216 
	C611.539734,645.248047 611.339783,639.023987 611.391724,632.842224 
	C611.431946,628.060486 611.068115,623.268188 611.267273,618.496521 
	C611.713379,607.806702 612.579712,597.132141 612.893066,586.440186 
	C613.011169,582.410889 612.074158,578.350647 611.618164,574.304504 
	C612.008179,574.081909 612.398132,573.859253 612.788147,573.636658 
	C613.596069,574.304932 614.593262,574.837463 615.184387,575.661316 
	C630.817566,597.449951 646.989075,618.884827 661.772766,641.237244 
	C669.656372,653.157043 679.243164,658.822205 693.301270,658.082031 
	C701.775391,657.635864 710.294128,657.892883 718.789001,658.045410 
	C723.014465,658.121338 726.728088,657.538269 728.408081,653.076660 
	C730.038391,648.746887 727.940247,645.229187 725.456360,641.963196 
	C718.979004,633.446777 712.350647,625.044556 705.920105,616.493347 
	C699.206055,607.565186 692.609131,598.547913 686.041382,589.511169 
	C679.303040,580.239746 672.662048,570.897583 665.555542,560.997131 
	C675.446716,561.254395 682.232178,556.613647 689.342041,552.362122 
	C699.776489,546.122498 709.552124,539.245483 714.939636,527.975891 
	C723.965881,509.095001 726.154907,489.479370 720.617065,469.061371 
	C718.028503,459.517517 715.739868,449.947845 708.270142,442.791229 
	C697.616150,432.583771 685.176514,426.261292 670.413757,423.836731 
	C655.471619,421.382660 640.538574,419.757965 625.418213,420.030457 
	C615.998718,420.200165 606.585999,420.850830 597.167297,420.930359 
	C591.586365,420.977478 585.998840,420.047577 580.415588,420.061615 
	C569.917725,420.088135 564.658997,423.973358 564.046326,432.041199 
	C563.496948,439.275299 563.008728,446.540924 563.056946,453.788879 
	C563.253784,483.367432 563.666687,512.944580 564.000000,543.515015 
z"/>
<path fill="#FFFFFF" opacity="1.000000" stroke="none" 
	d="
M528.000000,592.962463 
	C527.709961,614.815979 518.006592,631.075500 501.571930,644.240417 
	C491.499420,652.309021 480.056183,656.063416 467.714752,656.857544 
	C448.762604,658.077026 429.752716,658.560120 410.759094,658.908203 
	C400.688629,659.092712 390.602753,658.244812 380.520264,658.029785 
	C373.281708,657.875366 369.019470,654.835205 368.133301,647.697510 
	C367.502533,642.616821 368.001221,637.395874 367.996674,632.237488 
	C367.995819,631.238098 367.999756,630.238647 367.999817,629.239258 
	C368.000153,623.076172 368.034210,616.912903 367.994598,610.750122 
	C367.670807,560.360352 367.275604,509.970825 367.053192,459.580597 
	C367.013092,450.501709 367.534241,441.412354 368.039673,432.341400 
	C368.503082,424.024750 373.815765,420.004120 384.606079,420.058868 
	C393.521393,420.104095 402.434570,420.943939 411.347778,420.927155 
	C421.594879,420.907837 431.870697,419.697845 442.079224,420.175964 
	C452.614929,420.669373 463.054474,423.002838 473.591431,423.740265 
	C485.377014,424.565063 495.025940,430.265045 504.662659,436.042114 
	C512.662903,440.838196 517.834290,448.378326 521.195312,456.826111 
	C525.200745,466.893616 527.664490,477.410309 528.056580,488.380096 
	C528.483398,500.319946 523.807739,510.624115 517.316528,519.887634 
	C511.635773,527.994568 504.799744,535.469849 494.827240,539.487244 
	C515.955261,551.016296 528.316101,567.823425 528.000000,592.962463 
M464.938232,471.420441 
	C461.959473,470.280121 459.030975,468.332947 455.993011,468.143738 
	C444.796021,467.446289 433.539246,467.661987 422.352356,466.867371 
	C416.047546,466.419525 415.692902,469.737366 415.994232,474.295807 
	C416.351959,479.706360 416.856140,485.116180 416.956726,490.532623 
	C417.118134,499.221710 417.000000,507.915955 417.000000,516.996033 
	C430.337921,516.996033 444.289581,517.351990 458.209290,516.839722 
	C464.769623,516.598328 470.770508,514.067322 473.996613,507.319916 
	C476.910034,501.226379 477.736633,495.126862 476.055511,488.522278 
	C474.336243,481.768036 471.198822,476.080963 464.938232,471.420441 
M476.986816,589.887024 
	C476.991180,587.891479 477.226868,585.864624 476.961670,583.905579 
	C475.448486,572.728760 472.773560,568.076965 462.135559,565.152893 
	C456.571106,563.623413 450.587158,563.282593 444.769745,563.087036 
	C435.217529,562.765930 425.646667,563.000000 416.000031,563.000000 
	C416.000031,576.658325 416.141754,589.626221 415.913788,602.587524 
	C415.845337,606.480103 417.726929,608.623535 420.941620,608.856262 
	C430.132599,609.521912 439.379333,610.118103 448.570221,609.790161 
	C453.217529,609.624268 457.812439,607.473022 462.394043,606.096252 
	C470.146362,603.766785 473.483734,597.236511 476.986816,589.887024 
z"/>
<path fill="#FFFFFF" opacity="1.000000" stroke="none" 
	d="
M564.000000,543.018616 
	C563.666687,512.944580 563.253784,483.367432 563.056946,453.788879 
	C563.008728,446.540924 563.496948,439.275299 564.046326,432.041199 
	C564.658997,423.973358 569.917725,420.088135 580.415588,420.061615 
	C585.998840,420.047577 591.586365,420.977478 597.167297,420.930359 
	C606.585999,420.850830 615.998718,420.200165 625.418213,420.030457 
	C640.538574,419.757965 655.471619,421.382660 670.413757,423.836731 
	C685.176514,426.261292 697.616150,432.583771 708.270142,442.791229 
	C715.739868,449.947845 718.028503,459.517517 720.617065,469.061371 
	C726.154907,489.479370 723.965881,509.095001 714.939636,527.975891 
	C709.552124,539.245483 699.776489,546.122498 689.342041,552.362122 
	C682.232178,556.613647 675.446716,561.254395 665.555542,560.997131 
	C672.662048,570.897583 679.303040,580.239746 686.041382,589.511169 
	C692.609131,598.547913 699.206055,607.565186 705.920105,616.493347 
	C712.350647,625.044556 718.979004,633.446777 725.456360,641.963196 
	C727.940247,645.229187 730.038391,648.746887 728.408081,653.076660 
	C726.728088,657.538269 723.014465,658.121338 718.789001,658.045410 
	C710.294128,657.892883 701.775391,657.635864 693.301270,658.082031 
	C679.243164,658.822205 669.656372,653.157043 661.772766,641.237244 
	C646.989075,618.884827 630.817566,597.449951 615.184387,575.661316 
	C614.593262,574.837463 613.596069,574.304932 612.788147,573.636658 
	C612.398132,573.859253 612.008179,574.081909 611.618164,574.304504 
	C612.074158,578.350647 613.011169,582.410889 612.893066,586.440186 
	C612.579712,597.132141 611.713379,607.806702 611.267273,618.496521 
	C611.068115,623.268188 611.431946,628.060486 611.391724,632.842224 
	C611.339783,639.023987 611.539734,645.248047 610.872314,651.371216 
	C610.364014,656.034912 606.955261,657.996094 602.155579,658.061035 
	C593.402649,658.179565 584.656494,658.872009 575.904297,658.943909 
	C566.662354,659.019836 562.764526,655.691956 562.915588,646.242981 
	C563.463257,612.003296 563.666687,577.758118 564.000000,543.018616 
M613.000000,493.546631 
	C612.582886,501.222839 612.165833,508.899048 611.725708,517.000000 
	C624.825195,517.000000 637.253357,517.027039 649.681458,516.992737 
	C663.356750,516.955017 669.885010,512.658936 671.973999,500.485443 
	C672.551575,497.119843 672.322327,493.531830 671.948730,490.101929 
	C670.564758,477.397034 659.854980,467.381561 647.078979,467.053650 
	C636.775513,466.789246 626.458069,467.105255 616.150452,466.940277 
	C612.762146,466.886078 611.775635,468.240509 611.968567,471.381866 
	C612.402344,478.445770 612.666687,485.520050 613.000000,493.546631 
z"/>
<path fill="#000000" opacity="1.000000" stroke="none" 
	d="
M465.213135,471.685913 
	C471.198822,476.080963 474.336243,481.768036 476.055511,488.522278 
	C477.736633,495.126862 476.910034,501.226379 473.996613,507.319916 
	C470.770508,514.067322 464.769623,516.598328 458.209290,516.839722 
	C444.289581,517.351990 430.337921,516.996033 417.000000,516.996033 
	C417.000000,507.915955 417.118134,499.221710 416.956726,490.532623 
	C416.856140,485.116180 416.351959,479.706360 415.994232,474.295807 
	C415.692902,469.737366 416.047546,466.419525 422.352356,466.867371 
	C433.539246,467.661987 444.796021,467.446289 455.993011,468.143738 
	C459.030975,468.332947 461.959473,470.280121 465.213135,471.685913 
z"/>
<path fill="#000000" opacity="1.000000" stroke="none" 
	d="
M476.894135,590.302246 
	C473.483734,597.236511 470.146362,603.766785 462.394043,606.096252 
	C457.812439,607.473022 453.217529,609.624268 448.570221,609.790161 
	C439.379333,610.118103 430.132599,609.521912 420.941620,608.856262 
	C417.726929,608.623535 415.845337,606.480103 415.913788,602.587524 
	C416.141754,589.626221 416.000031,576.658325 416.000031,563.000000 
	C425.646667,563.000000 435.217529,562.765930 444.769745,563.087036 
	C450.587158,563.282593 456.571106,563.623413 462.135559,565.152893 
	C472.773560,568.076965 475.448486,572.728760 476.961670,583.905579 
	C477.226868,585.864624 476.991180,587.891479 476.894135,590.302246 
z"/>
<path fill="#000000" opacity="1.000000" stroke="none" 
	d="
M613.000000,493.068359 
	C612.666687,485.520050 612.402344,478.445770 611.968567,471.381866 
	C611.775635,468.240509 612.762146,466.886078 616.150452,466.940277 
	C626.458069,467.105255 636.775513,466.789246 647.078979,467.053650 
	C659.854980,467.381561 670.564758,477.397034 671.948730,490.101929 
	C672.322327,493.531830 672.551575,497.119843 671.973999,500.485443 
	C669.885010,512.658936 663.356750,516.955017 649.681458,516.992737 
	C637.253357,517.027039 624.825195,517.000000 611.725708,517.000000 
	C612.165833,508.899048 612.582886,501.222839 613.000000,493.068359 
z"/>
</svg>